<svg width="300" height="300" viewBox="0 0 300 300" fill="none" xmlns="http://www.w3.org/2000/svg">
<path d="M0 25C0 11.1929 11.1929 0 25 0H275C288.807 0 300 11.1929 300 25V275C300 288.807 288.807 300 275 300H25C11.1929 300 0 288.807 0 275V25Z" fill="#172838"/>
<rect x="95" y="50" width="35" height="20" rx="5" fill="#8498CC"/>
<rect x="47" y="50" width="35" height="20" rx="5" fill="#8498CC"/>
<rect x="74" y="20" width="35" height="20" rx="5" fill="#8498CC"/>
<rect x="26" y="20" width="35" height="20" rx="5" fill="#8498CC"/>
<rect x="218" y="20" width="35" height="20" rx="5" fill="#8498CC"/>
<rect x="170" y="20" width="35" height="20" rx="5" fill="#8498CC"/>
<rect x="122" y="20" width="35" height="20" rx="5" fill="#8498CC"/>
<rect x="239" y="50" width="35" height="20" rx="5" fill="#8498CC"/>
<rect x="191" y="50" width="35" height="20" rx="5" fill="#8498CC"/>
<rect x="143" y="50" width="35" height="20" rx="5" fill="#8498CC"/>
<rect x="170" y="80" width="35" height="20" rx="5" fill="#8498CC"/>
<rect x="47" y="110" width="35" height="20" rx="5" fill="#8498CC"/>
<rect x="26" y="80" width="35" height="20" rx="5" fill="#8498CC"/>
<rect x="218" y="80" width="35" height="20" rx="5" fill="#8498CC"/>
<rect x="246" y="110" width="35" height="20" rx="5" fill="#8498CC"/>
<path d="M205 115C205 112.239 207.239 110 210 110H229C231.761 110 234 112.239 234 115V125C234 127.761 231.761 130 229 130H210C207.239 130 205 127.761 205 125V115Z" fill="#8498CC"/>
<rect x="47" y="170" width="35" height="20" rx="5" fill="#8498CC"/>
<rect x="26" y="140" width="35" height="20" rx="5" fill="#8498CC"/>
<rect x="218" y="140" width="35" height="20" rx="5" fill="#8498CC"/>
<rect x="218" y="140" width="35" height="20" rx="5" fill="#8498CC"/>
<rect x="239" y="170" width="35" height="20" rx="5" fill="#8498CC"/>
<rect x="95" y="230" width="35" height="20" rx="5" fill="#8498CC"/>
<rect x="47" y="230" width="35" height="20" rx="5" fill="#8498CC"/>
<rect x="74" y="200" width="35" height="20" rx="5" fill="#8498CC"/>
<rect x="26" y="200" width="35" height="20" rx="5" fill="#8498CC"/>
<rect x="218" y="200" width="35" height="20" rx="5" fill="#8498CC"/>
<rect x="239" y="230" width="35" height="20" rx="5" fill="#8498CC"/>
<rect x="191" y="230" width="35" height="20" rx="5" fill="#8498CC"/>
<rect x="143" y="230" width="35" height="20" rx="5" fill="#8498CC"/>
<rect x="74" y="260" width="35" height="20" rx="5" fill="#8498CC"/>
<rect x="26" y="260" width="35" height="20" rx="5" fill="#8498CC"/>
<rect x="218" y="260" width="35" height="20" rx="5" fill="#8498CC"/>
<rect x="170" y="260" width="35" height="20" rx="5" fill="#8498CC"/>
<rect x="122" y="260" width="35" height="20" rx="5" fill="#8498CC"/>
<rect x="263" y="80" width="17" height="20" rx="5" fill="#8498CC"/>
<rect x="143" y="50" width="35" height="20" rx="5" fill="#8498CC"/>
<g filter="url(#filter0_d_5_42)">
<mask id="path-38-outside-1_5_42" maskUnits="userSpaceOnUse" x="96" y="93" width="56" height="82" fill="black">
<rect fill="white" x="96" y="93" width="56" height="82"/>
<path d="M97.9844 173V95.3438H111.164V173H97.9844ZM97.9844 143.469V131.273H140.094V143.469H97.9844ZM97.9844 107.484V95.3438H150.484V107.484H97.9844Z"/>
</mask>
<path d="M97.9844 173V95.3438H111.164V173H97.9844ZM97.9844 143.469V131.273H140.094V143.469H97.9844ZM97.9844 107.484V95.3438H150.484V107.484H97.9844Z" fill="#FBD4B8"/>
<path d="M97.9844 173H96.4844V174.5H97.9844V173ZM97.9844 95.3438V93.8438H96.4844V95.3438H97.9844ZM111.164 95.3438H112.664V93.8438H111.164V95.3438ZM111.164 173V174.5H112.664V173H111.164ZM97.9844 143.469H96.4844V144.969H97.9844V143.469ZM97.9844 131.273V129.773H96.4844V131.273H97.9844ZM140.094 131.273H141.594V129.773H140.094V131.273ZM140.094 143.469V144.969H141.594V143.469H140.094ZM97.9844 107.484H96.4844V108.984H97.9844V107.484ZM97.9844 95.3438V93.8438H96.4844V95.3438H97.9844ZM150.484 95.3438H151.984V93.8438H150.484V95.3438ZM150.484 107.484V108.984H151.984V107.484H150.484ZM99.4844 173V95.3438H96.4844V173H99.4844ZM97.9844 96.8438H111.164V93.8438H97.9844V96.8438ZM109.664 95.3438V173H112.664V95.3438H109.664ZM111.164 171.5H97.9844V174.5H111.164V171.5ZM99.4844 143.469V131.273H96.4844V143.469H99.4844ZM97.9844 132.773H140.094V129.773H97.9844V132.773ZM138.594 131.273V143.469H141.594V131.273H138.594ZM140.094 141.969H97.9844V144.969H140.094V141.969ZM99.4844 107.484V95.3438H96.4844V107.484H99.4844ZM97.9844 96.8438H150.484V93.8438H97.9844V96.8438ZM148.984 95.3438V107.484H151.984V95.3438H148.984ZM150.484 105.984H97.9844V108.984H150.484V105.984Z" fill="black" mask="url(#path-38-outside-1_5_42)"/>
</g>
<g filter="url(#filter1_d_5_42)">
<mask id="path-40-outside-2_5_42" maskUnits="userSpaceOnUse" x="129" y="129" width="69" height="82" fill="black">
<rect fill="white" x="129" y="129" width="69" height="82"/>
<path d="M139.711 209L131.234 131.344H144.359L149.828 197.789H151.195L157.539 151.031H169.57L165.359 164.32H163.172L158.25 209H139.711ZM168.75 209L163.828 164.32H161.641L157.539 151.031H169.57L175.805 197.789H177.172L182.641 131.344H195.766L187.289 209H168.75Z"/>
</mask>
<path d="M139.711 209L131.234 131.344H144.359L149.828 197.789H151.195L157.539 151.031H169.57L165.359 164.32H163.172L158.25 209H139.711ZM168.75 209L163.828 164.32H161.641L157.539 151.031H169.57L175.805 197.789H177.172L182.641 131.344H195.766L187.289 209H168.75Z" fill="#FBD4B8"/>
<path d="M139.711 209L138.22 209.163L138.366 210.5H139.711V209ZM131.234 131.344V129.844H129.562L129.743 131.507L131.234 131.344ZM144.359 131.344L145.854 131.221L145.741 129.844H144.359V131.344ZM149.828 197.789L148.333 197.912L148.447 199.289H149.828V197.789ZM151.195 197.789V199.289H152.506L152.682 197.991L151.195 197.789ZM157.539 151.031V149.531H156.229L156.053 150.83L157.539 151.031ZM169.57 151.031L171 151.484L171.619 149.531H169.57V151.031ZM165.359 164.32V165.82H166.458L166.789 164.773L165.359 164.32ZM163.172 164.32V162.82H161.828L161.681 164.156L163.172 164.32ZM158.25 209V210.5H159.594L159.741 209.164L158.25 209ZM168.75 209L167.259 209.164L167.406 210.5H168.75V209ZM163.828 164.32L165.319 164.156L165.172 162.82H163.828V164.32ZM161.641 164.32L160.207 164.763L160.534 165.82H161.641V164.32ZM157.539 151.031V149.531H155.506L156.106 151.474L157.539 151.031ZM169.57 151.031L171.057 150.833L170.884 149.531H169.57V151.031ZM175.805 197.789L174.318 197.987L174.491 199.289H175.805V197.789ZM177.172 197.789V199.289H178.553L178.667 197.912L177.172 197.789ZM182.641 131.344V129.844H181.259L181.146 131.221L182.641 131.344ZM195.766 131.344L197.257 131.507L197.438 129.844H195.766V131.344ZM187.289 209V210.5H188.634L188.78 209.163L187.289 209ZM141.202 208.837L132.726 131.181L129.743 131.507L138.22 209.163L141.202 208.837ZM131.234 132.844H144.359V129.844H131.234V132.844ZM142.864 131.467L148.333 197.912L151.323 197.666L145.854 131.221L142.864 131.467ZM149.828 199.289H151.195V196.289H149.828V199.289ZM152.682 197.991L159.025 151.233L156.053 150.83L149.709 197.587L152.682 197.991ZM157.539 152.531H169.57V149.531H157.539V152.531ZM168.14 150.578L163.929 163.867L166.789 164.773L171 151.484L168.14 150.578ZM165.359 162.82H163.172V165.82H165.359V162.82ZM161.681 164.156L156.759 208.836L159.741 209.164L164.663 164.485L161.681 164.156ZM158.25 207.5H139.711V210.5H158.25V207.5ZM170.241 208.836L165.319 164.156L162.337 164.485L167.259 209.164L170.241 208.836ZM163.828 162.82H161.641V165.82H163.828V162.82ZM163.074 163.878L158.972 150.589L156.106 151.474L160.207 164.763L163.074 163.878ZM157.539 152.531H169.57V149.531H157.539V152.531ZM168.083 151.229L174.318 197.987L177.292 197.591L171.057 150.833L168.083 151.229ZM175.805 199.289H177.172V196.289H175.805V199.289ZM178.667 197.912L184.136 131.467L181.146 131.221L175.677 197.666L178.667 197.912ZM182.641 132.844H195.766V129.844H182.641V132.844ZM194.274 131.181L185.798 208.837L188.78 209.163L197.257 131.507L194.274 131.181ZM187.289 207.5H168.75V210.5H187.289V207.5Z" fill="black" mask="url(#path-40-outside-2_5_42)"/>
</g>
<rect x="263" y="200" width="17" height="20" rx="5" fill="#8498CC"/>
<rect x="263" y="200" width="17" height="20" rx="5" fill="#8498CC"/>
<rect x="263" y="260" width="17" height="20" rx="5" fill="#8498CC"/>
<rect x="18" y="230" width="17" height="20" rx="5" fill="#8498CC"/>
<rect x="18" y="170" width="17" height="20" rx="5" fill="#8498CC"/>
<rect x="18" y="110" width="17" height="20" rx="5" fill="#8498CC"/>
<rect x="263" y="20" width="17" height="20" rx="5" fill="#8498CC"/>
<rect x="18" y="50" width="17" height="20" rx="5" fill="#8498CC"/>
<rect x="263" y="140" width="17" height="20" rx="5" fill="#8498CC"/>
<defs>
<filter id="filter0_d_5_42" x="93.9844" y="95.3438" width="60.5" height="85.6562" filterUnits="userSpaceOnUse" color-interpolation-filters="sRGB">
<feFlood flood-opacity="0" result="BackgroundImageFix"/>
<feColorMatrix in="SourceAlpha" type="matrix" values="0 0 0 0 0 0 0 0 0 0 0 0 0 0 0 0 0 0 127 0" result="hardAlpha"/>
<feOffset dy="4"/>
<feGaussianBlur stdDeviation="2"/>
<feComposite in2="hardAlpha" operator="out"/>
<feColorMatrix type="matrix" values="0 0 0 0 0 0 0 0 0 0 0 0 0 0 0 0 0 0 0.25 0"/>
<feBlend mode="normal" in2="BackgroundImageFix" result="effect1_dropShadow_5_42"/>
<feBlend mode="normal" in="SourceGraphic" in2="effect1_dropShadow_5_42" result="shape"/>
</filter>
<filter id="filter1_d_5_42" x="127.234" y="131.344" width="72.5312" height="85.6562" filterUnits="userSpaceOnUse" color-interpolation-filters="sRGB">
<feFlood flood-opacity="0" result="BackgroundImageFix"/>
<feColorMatrix in="SourceAlpha" type="matrix" values="0 0 0 0 0 0 0 0 0 0 0 0 0 0 0 0 0 0 127 0" result="hardAlpha"/>
<feOffset dy="4"/>
<feGaussianBlur stdDeviation="2"/>
<feComposite in2="hardAlpha" operator="out"/>
<feColorMatrix type="matrix" values="0 0 0 0 0 0 0 0 0 0 0 0 0 0 0 0 0 0 0.25 0"/>
<feBlend mode="normal" in2="BackgroundImageFix" result="effect1_dropShadow_5_42"/>
<feBlend mode="normal" in="SourceGraphic" in2="effect1_dropShadow_5_42" result="shape"/>
</filter>
</defs>
</svg>
